<svg width="24" height="24" viewBox="0 0 24 24" fill="none" xmlns="http://www.w3.org/2000/svg">
<path d="M20.625 5.625H19.125C19.0125 5.625 18.9375 5.6625 18.8625 5.7375L11.1 13.5H10.125V12.75H10.875C11.1 12.75 11.25 12.6 11.25 12.375C11.25 11.5125 10.125 10.875 8.625 10.875C7.125 10.875 6 11.5125 6 12.375C6 12.6 6.15 12.75 6.375 12.75H7.125V13.5H6.375C6.2625 13.5 6.15 13.5375 6.075 13.65L5.2875 14.6625C5.175 14.6625 5.025 14.625 4.875 14.625C3.825 14.625 3 15.45 3 16.5C3 17.55 3.825 18.375 4.875 18.375C5.625 18.375 6.3 17.925 6.6 17.25H12.9375C13.4625 17.9625 14.2875 18.375 15.1875 18.375C16.725 18.375 18 17.1 18 15.5625C18 14.025 16.725 12.75 15.1875 12.75C14.1375 12.75 13.2 13.35 12.75 14.2125L11.8875 13.8L19.275 6.375H20.625C20.85 6.375 21 6.225 21 6C21 5.775 20.85 5.625 20.625 5.625ZM7.875 15V14.7H9.375V15H7.875ZM7.875 14.0625H9.375V14.325H7.875V14.0625ZM9.375 13.6875H7.875V13.425H9.375V13.6875ZM8.625 11.625C9.3375 11.625 9.9 11.8125 10.2 12H9.75H7.5H7.05C7.35 11.8125 7.9125 11.625 8.625 11.625ZM9.375 12.75V13.05H7.875V12.75H9.375ZM6.5625 14.25H7.125V15H6L6.5625 14.25ZM4.875 17.625C4.2375 17.625 3.75 17.1375 3.75 16.5C3.75 15.8625 4.2375 15.375 4.875 15.375C5.5125 15.375 6 15.8625 6 16.5C6 17.1375 5.5125 17.625 4.875 17.625ZM6.6 15.75H7.5H9.75H12.375C12.375 16.0125 12.45 16.275 12.525 16.5H6.75C6.75 16.2375 6.675 15.975 6.6 15.75ZM15.1875 13.5C16.3125 13.5 17.25 14.4375 17.25 15.5625C17.25 16.6875 16.3125 17.625 15.1875 17.625C14.475 17.625 13.8375 17.2875 13.4625 16.6875C13.2375 16.35 13.125 15.975 13.125 15.5625C13.125 15.525 13.125 15.45 13.125 15.4125C13.2 14.325 14.1 13.5 15.1875 13.5ZM12.45 15H10.125V14.25H11.175L12.4875 14.8875C12.45 14.925 12.45 14.9625 12.45 15Z" fill="#53B1FD"/>
<path d="M15.1875 16.3125C15.6 16.3125 15.9375 15.975 15.9375 15.5625C15.9375 15.15 15.6 14.8125 15.1875 14.8125C14.775 14.8125 14.4375 15.15 14.4375 15.5625C14.4375 15.975 14.775 16.3125 15.1875 16.3125ZM15.1875 15.1875C15.4125 15.1875 15.5625 15.3375 15.5625 15.5625C15.5625 15.7875 15.4125 15.9375 15.1875 15.9375C14.9625 15.9375 14.8125 15.7875 14.8125 15.5625C14.8125 15.3375 15 15.1875 15.1875 15.1875Z" fill="#53B1FD"/>
<path d="M4.8749 15.9C4.5374 15.9 4.2749 16.1625 4.2749 16.5C4.2749 16.8375 4.5374 17.1 4.8749 17.1C5.2124 17.1 5.4749 16.8375 5.4749 16.5C5.4749 16.1625 5.2124 15.9 4.8749 15.9ZM4.8749 16.725C4.7624 16.725 4.6499 16.6125 4.6499 16.5C4.6499 16.3875 4.7624 16.275 4.8749 16.275C4.9874 16.275 5.0999 16.3875 5.0999 16.5C5.0999 16.6125 4.9874 16.725 4.8749 16.725Z" fill="#53B1FD"/>
<path d="M15.1876 17.2125C15.3001 17.2125 15.3751 17.1375 15.3751 17.025C15.3751 16.9125 15.3001 16.8375 15.1876 16.8375C14.4751 16.8375 13.9126 16.275 13.9126 15.5625C13.9126 15.45 13.8376 15.375 13.7251 15.375C13.6126 15.375 13.5376 15.45 13.5376 15.5625C13.5376 16.4625 14.2876 17.2125 15.1876 17.2125Z" fill="#53B1FD"/>
<path d="M15.1875 14.2875C15.9 14.2875 16.4625 14.85 16.4625 15.5625C16.4625 15.675 16.5375 15.75 16.65 15.75C16.7625 15.75 16.8375 15.675 16.8375 15.5625C16.8375 14.6625 16.0875 13.9125 15.1875 13.9125C15.075 13.9125 15 13.9875 15 14.1C15 14.2125 15.075 14.2875 15.1875 14.2875Z" fill="#282828"/>
</svg>
