<svg width="24" height="24" viewBox="0 0 24 24" fill="none" xmlns="http://www.w3.org/2000/svg">
<g clip-path="url(#clip0_612_2548)">
<path d="M19.5 20.25H4.5C3.90326 20.25 3.33097 20.0129 2.90901 19.591C2.48705 19.169 2.25 18.5967 2.25 18V9C2.25 8.40326 2.48705 7.83097 2.90901 7.40901C3.33097 6.98705 3.90326 6.75 4.5 6.75H7.665L7.9875 5.4525C8.10953 4.96608 8.39056 4.53438 8.78597 4.22593C9.18139 3.91748 9.66851 3.74997 10.17 3.75H13.83C14.3315 3.74997 14.8186 3.91748 15.214 4.22593C15.6094 4.53438 15.8905 4.96608 16.0125 5.4525L16.335 6.75H19.5C20.0967 6.75 20.669 6.98705 21.091 7.40901C21.5129 7.83097 21.75 8.40326 21.75 9V18C21.75 18.5967 21.5129 19.169 21.091 19.591C20.669 20.0129 20.0967 20.25 19.5 20.25ZM4.5 8.25C4.30109 8.25 4.11032 8.32902 3.96967 8.46967C3.82902 8.61032 3.75 8.80109 3.75 9V18C3.75 18.1989 3.82902 18.3897 3.96967 18.5303C4.11032 18.671 4.30109 18.75 4.5 18.75H19.5C19.6989 18.75 19.8897 18.671 20.0303 18.5303C20.171 18.3897 20.25 18.1989 20.25 18V9C20.25 8.80109 20.171 8.61032 20.0303 8.46967C19.8897 8.32902 19.6989 8.25 19.5 8.25H15.75C15.5787 8.25499 15.4108 8.20115 15.2743 8.09744C15.1379 7.99373 15.0411 7.84641 15 7.68L14.535 5.8125C14.4925 5.64748 14.395 5.50187 14.2587 5.39962C14.1224 5.29738 13.9553 5.24461 13.785 5.25H10.17C9.99968 5.24461 9.8326 5.29738 9.69628 5.39962C9.55996 5.50187 9.46252 5.64748 9.42 5.8125L9 7.68C8.95894 7.84641 8.86212 7.99373 8.72565 8.09744C8.58919 8.20115 8.42133 8.25499 8.25 8.25H4.5Z" fill="#53B1FD"/>
<path d="M12 17.25C11.2583 17.25 10.5333 17.0301 9.91661 16.618C9.29993 16.206 8.81928 15.6203 8.53545 14.9351C8.25162 14.2498 8.17736 13.4958 8.32206 12.7684C8.46675 12.041 8.8239 11.3728 9.34835 10.8484C9.8728 10.3239 10.541 9.96675 11.2684 9.82206C11.9958 9.67736 12.7498 9.75162 13.4351 10.0355C14.1203 10.3193 14.706 10.7999 15.118 11.4166C15.5301 12.0333 15.75 12.7583 15.75 13.5C15.75 13.9925 15.653 14.4801 15.4646 14.9351C15.2761 15.39 14.9999 15.8034 14.6517 16.1517C14.3034 16.4999 13.89 16.7761 13.4351 16.9646C12.9801 17.153 12.4925 17.25 12 17.25ZM12 11.25C11.555 11.25 11.12 11.382 10.75 11.6292C10.38 11.8764 10.0916 12.2278 9.92127 12.639C9.75098 13.0501 9.70642 13.5025 9.79323 13.939C9.88005 14.3754 10.0943 14.7763 10.409 15.091C10.7237 15.4057 11.1246 15.62 11.561 15.7068C11.9975 15.7936 12.4499 15.749 12.861 15.5787C13.2722 15.4084 13.6236 15.12 13.8708 14.75C14.118 14.38 14.25 13.945 14.25 13.5C14.25 12.9033 14.0129 12.331 13.591 11.909C13.169 11.4871 12.5967 11.25 12 11.25Z" fill="#53B1FD"/>
<path d="M18 11.25H17.25C17.0511 11.25 16.8603 11.171 16.7197 11.0303C16.579 10.8897 16.5 10.6989 16.5 10.5C16.5 10.3011 16.579 10.1103 16.7197 9.96967C16.8603 9.82902 17.0511 9.75 17.25 9.75H18C18.1989 9.75 18.3897 9.82902 18.5303 9.96967C18.671 10.1103 18.75 10.3011 18.75 10.5C18.75 10.6989 18.671 10.8897 18.5303 11.0303C18.3897 11.171 18.1989 11.25 18 11.25Z" fill="#53B1FD"/>
</g>
<defs>
<clipPath id="clip0_612_2548">
<rect width="24" height="24" fill="white"/>
</clipPath>
</defs>
</svg>
