<svg width="24" height="24" viewBox="0 0 24 24" fill="none" xmlns="http://www.w3.org/2000/svg">
<path d="M5.90308 14.15H4.49996H4.39996V14.25V16.6973C3.51503 15.4369 3.05753 13.9225 3.09993 12.3777L3.09995 12.3763C3.12756 10.2854 3.89048 8.27213 5.25291 6.68882L5.67973 7.14112L5.75249 7.21822L5.82522 7.14108L6.07078 6.88064C7.66814 5.36835 9.79846 4.54856 11.9976 4.59996L11.9976 4.60006L12.0023 4.59996C14.2022 4.54855 16.3332 5.3689 17.9307 6.88215C17.9309 6.88229 17.931 6.88243 17.9312 6.88258L18.2002 7.14418L18.2747 7.21657L18.3442 7.13944L18.7487 6.69076C20.1101 8.27378 20.8724 10.2862 20.9 12.3763L20.9 12.3777C20.9424 13.9225 20.4849 15.4369 19.6 16.6973V14.25V14.15H19.5H18.0968C18.0726 13.7621 17.9077 13.395 17.6313 13.1186C17.3313 12.8186 16.9243 12.65 16.5 12.65C16.0756 12.65 15.6686 12.8186 15.3686 13.1186C15.0685 13.4187 14.9 13.8256 14.9 14.25V20.25C14.9 20.6743 15.0685 21.0813 15.3686 21.3813C15.6686 21.6814 16.0756 21.85 16.5 21.85C16.9243 21.85 17.3313 21.6814 17.6313 21.3813C17.9077 21.1049 18.0726 20.7378 18.0968 20.35H19.5H19.6V20.25V18.183C20.3385 17.4183 20.9179 16.5145 21.3044 15.5238C21.6957 14.5207 21.8812 13.4491 21.8499 12.3728C21.8162 10.0268 20.9513 7.76989 19.4107 6.00288L19.8721 5.52169L19.9446 5.44615L19.8658 5.37723L19.5672 5.11591C17.5206 3.18999 14.8101 2.12761 12 2.14998C9.19002 2.12761 6.47973 3.18981 4.43326 5.11543L4.13519 5.36879L4.05484 5.43709L4.12731 5.5137L4.5896 6.00241C3.04879 7.76949 2.1837 10.0266 2.14998 12.3728C2.11866 13.4491 2.30419 14.5207 2.69552 15.5238C3.082 16.5145 3.6614 17.4183 4.39996 18.183V20.25V20.35H4.49996H5.90308C5.92735 20.7378 6.09219 21.1049 6.36859 21.3813C6.66864 21.6814 7.07561 21.85 7.49996 21.85C7.9243 21.85 8.33127 21.6814 8.63133 21.3813C8.93139 21.0813 9.09996 20.6743 9.09996 20.25V14.25C9.09996 13.8256 8.93139 13.4187 8.63133 13.1186C8.33127 12.8186 7.9243 12.65 7.49996 12.65C7.07561 12.65 6.66864 12.8186 6.36859 13.1186C6.09219 13.395 5.92736 13.7621 5.90308 14.15ZM7.49996 13.6C7.67235 13.6 7.83768 13.6685 7.95958 13.7904C8.08147 13.9123 8.14996 14.0776 8.14996 14.25V20.25C8.14996 20.4224 8.08147 20.5877 7.95958 20.7096C7.83768 20.8315 7.67235 20.9 7.49996 20.9C7.32757 20.9 7.16224 20.8315 7.04034 20.7096C6.91844 20.5877 6.84996 20.4224 6.84996 20.25V14.25C6.84996 14.0776 6.91844 13.9123 7.04034 13.7904C7.16224 13.6685 7.32757 13.6 7.49996 13.6ZM5.34996 15.1H5.89996V19.4H5.34996V15.1ZM16.5 20.9C16.3276 20.9 16.1622 20.8315 16.0403 20.7096C15.9184 20.5877 15.85 20.4224 15.85 20.25V14.25C15.85 14.0776 15.9184 13.9123 16.0403 13.7904C16.1622 13.6685 16.3276 13.6 16.5 13.6C16.6723 13.6 16.8377 13.6685 16.9596 13.7904C17.0815 13.9123 17.15 14.0776 17.15 14.25V20.25C17.15 20.4224 17.0815 20.5877 16.9596 20.7096C16.8377 20.8315 16.6723 20.9 16.5 20.9ZM18.65 19.4H18.1V15.1H18.65V19.4Z" fill="#53B1FD" stroke="#53B1FD" stroke-width="0.2"/>
</svg>
