<svg width="24" height="24" viewBox="0 0 24 24" fill="none" xmlns="http://www.w3.org/2000/svg">
<path d="M9.5675 11.6448H9.56762C10.1183 11.6443 10.6464 11.4253 11.0358 11.0359C11.4252 10.6465 11.6442 10.1185 11.6446 9.56774V9.56762V4.32717V4.32705C11.6442 3.77632 11.4252 3.24828 11.0358 2.85886C10.6464 2.46944 10.1183 2.25047 9.56762 2.25002H9.5675L4.32705 2.25002L4.32692 2.25002C3.7762 2.25047 3.24816 2.46944 2.85874 2.85886C2.46932 3.24828 2.25035 3.77632 2.2499 4.32705V4.32717L2.2499 9.56762L2.2499 9.56774C2.25035 10.1185 2.46932 10.6465 2.85874 11.0359C3.24816 11.4253 3.7762 11.6443 4.32692 11.6448H4.32705H9.5675ZM3.51439 3.51451C3.72997 3.29893 4.02225 3.17764 4.32713 3.17725H9.56741C9.87229 3.17764 10.1646 3.29893 10.3802 3.51451C10.5958 3.73012 10.717 4.02244 10.7174 4.32735V9.56744C10.717 9.87235 10.5958 10.1647 10.3802 10.3803C10.1645 10.5959 9.87223 10.7172 9.56731 10.7175H4.32723C4.02231 10.7172 3.72999 10.5959 3.51439 10.3803C3.2988 10.1647 3.17752 9.87241 3.17713 9.56753V4.32725C3.17752 4.02237 3.2988 3.73009 3.51439 3.51451Z" fill="#53B1FD" stroke="#53B1FD" stroke-width="0.3"/>
<path d="M14.4321 3.17725C14.1272 3.17764 13.835 3.29893 13.6194 3.51451C13.4038 3.7301 13.2825 4.0224 13.2821 4.3273C13.2821 4.32732 13.2821 4.32733 13.2821 4.32735V9.56744C13.2825 9.87235 13.4038 10.1647 13.6194 10.3803C13.835 10.5959 14.1273 10.7172 14.4322 10.7175H19.6723C19.9772 10.7172 20.2695 10.5959 20.4851 10.3803C20.7007 10.1647 20.822 9.87247 20.8224 9.56762C20.8224 9.56756 20.8224 9.5675 20.8224 9.56744M14.4321 3.17725L20.9724 9.56762L20.8224 9.56744M14.4321 3.17725H19.6724C19.9773 3.17764 20.2696 3.29893 20.4851 3.51451C20.7007 3.73007 20.822 4.02232 20.8224 4.32717M14.4321 3.17725L20.8224 4.32717M20.8224 9.56744V4.32735M20.8224 9.56744V4.32735M20.8224 4.32735L20.8224 4.32717M20.8224 4.32735L20.8224 4.32717M19.6725 11.6448H19.6726C20.2233 11.6443 20.7514 11.4253 21.1408 11.0359C21.5302 10.6465 21.7492 10.1185 21.7496 9.56774V9.56762V4.32717L21.7496 4.32705C21.7492 3.77632 21.5302 3.24828 21.1408 2.85886C20.7514 2.46944 20.2233 2.25047 19.6726 2.25002H19.6725L14.432 2.25002L14.4319 2.25002C13.8812 2.25047 13.3531 2.46944 12.9637 2.85886C12.5743 3.24828 12.3553 3.77632 12.3549 4.32705V4.32717L12.3549 9.56762L12.3549 9.56774C12.3553 10.1185 12.5743 10.6465 12.9637 11.0359C13.3531 11.4253 13.8812 11.6443 14.4319 11.6448H14.432H19.6725Z" fill="#53B1FD" stroke="#53B1FD" stroke-width="0.3"/>
<path d="M4.32723 13.2824C4.02231 13.2827 3.72999 13.404 3.51439 13.6196C3.2988 13.8352 3.17752 14.1275 3.17713 14.4324V19.6726C3.17752 19.9775 3.2988 20.2698 3.51439 20.4854C3.72995 20.7009 4.0222 20.8222 4.32705 20.8226M4.32723 13.2824L4.32705 20.9726L4.32723 20.8226M4.32723 13.2824H9.56731C9.56733 13.2824 9.56735 13.2824 9.56736 13.2824C9.87226 13.2827 10.1646 13.404 10.3802 13.6196C10.5958 13.8352 10.717 14.1275 10.7174 14.4325V19.6725C10.717 19.9775 10.5958 20.2698 10.3802 20.4854C10.1646 20.7009 9.87234 20.8222 9.5675 20.8226M4.32723 13.2824L9.5675 20.8226M4.32705 20.8226C4.32711 20.8226 4.32717 20.8226 4.32723 20.8226M4.32705 20.8226L4.32723 20.8226M4.32705 20.8226L9.56731 20.8226M4.32723 20.8226H9.56731M9.56731 20.8226L9.5675 20.8226M9.56731 20.8226L9.5675 20.8226M9.5675 21.7499L9.56762 21.7499C10.1183 21.7494 10.6464 21.5304 11.0358 21.141C11.4252 20.7516 11.6442 20.2236 11.6446 19.6728V19.6727V14.4323V14.4321C11.6442 13.8814 11.4252 13.3534 11.0358 12.964C10.6464 12.5745 10.1183 12.3556 9.56762 12.3551H9.5675L4.32705 12.3551L4.32692 12.3551C3.7762 12.3556 3.24816 12.5745 2.85874 12.964C2.46932 13.3534 2.25035 13.8814 2.2499 14.4321V14.4323L2.2499 19.6727L2.2499 19.6728C2.25035 20.2236 2.46932 20.7516 2.85874 21.141C3.24816 21.5304 3.7762 21.7494 4.32692 21.7499H4.32705H9.5675Z" fill="#53B1FD" stroke="#53B1FD" stroke-width="0.3"/>
<path d="M14.4322 13.2824C14.1273 13.2827 13.835 13.404 13.6194 13.6196C13.4038 13.8352 13.2825 14.1275 13.2821 14.4324C13.2821 14.4324 13.2821 14.4324 13.2821 14.4325V19.6725C13.2825 19.9775 13.4038 20.2698 13.6194 20.4854C13.8349 20.7009 14.1272 20.8222 14.432 20.8226M14.4322 13.2824L14.432 20.9726L14.4322 20.8226M14.4322 13.2824H19.6723C19.6723 13.2824 19.6723 13.2824 19.6723 13.2824C19.9772 13.2827 20.2695 13.404 20.4851 13.6196C20.7007 13.8352 20.822 14.1274 20.8224 14.4323M14.4322 13.2824L20.8224 14.4323M14.432 20.8226C14.4321 20.8226 14.4321 20.8226 14.4322 20.8226M14.432 20.8226L14.4322 20.8226M14.432 20.8226L19.6723 20.8226M14.4322 20.8226H19.6723M19.6723 20.8226L19.6725 20.8226M19.6723 20.8226L19.6725 20.8226M19.6725 20.8226C19.9773 20.8222 20.2696 20.7009 20.4851 20.4854C20.7007 20.2698 20.822 19.9776 20.8224 19.6727C20.8224 19.6727 20.8224 19.6726 20.8224 19.6725M19.6725 20.8226L20.9724 19.6727L20.8224 19.6725M20.8224 19.6725V14.4325M20.8224 19.6725V14.4325M20.8224 14.4325L20.8224 14.4323M20.8224 14.4325L20.8224 14.4323M19.6725 21.7499L19.6726 21.7499C20.2233 21.7494 20.7514 21.5304 21.1408 21.141C21.5302 20.7516 21.7492 20.2236 21.7496 19.6728V19.6727V14.4323L21.7496 14.4321C21.7492 13.8814 21.5302 13.3534 21.1408 12.964C20.7514 12.5745 20.2233 12.3556 19.6726 12.3551H19.6725L14.432 12.3551L14.4319 12.3551C13.8812 12.3556 13.3531 12.5745 12.9637 12.964C12.5743 13.3534 12.3553 13.8814 12.3549 14.4321V14.4323L12.3549 19.6727L12.3549 19.6728C12.3553 20.2236 12.5743 20.7516 12.9637 21.141C13.3531 21.5304 13.8812 21.7494 14.4319 21.7499H14.432H19.6725Z" fill="#53B1FD" stroke="#53B1FD" stroke-width="0.3"/>
</svg>
