<svg width="24" height="24" viewBox="0 0 24 24" fill="none" xmlns="http://www.w3.org/2000/svg">
<path d="M3.22542 8.11509H3.37542V8.11444H18.5651C19.2382 8.11444 19.7858 8.66248 19.7858 9.33575V18.6135C19.7858 19.2867 19.2383 19.8342 18.5651 19.8342H3.22542C2.55228 19.8342 2.00476 19.2861 2.00476 18.6135V9.33575C2.00476 8.66257 2.55224 8.11509 3.22542 8.11509ZM3.22542 20.7888H18.5651C19.7646 20.7888 20.7403 19.8131 20.7403 18.6135V9.33575C20.7403 8.13629 19.7647 7.15988 18.5651 7.15988H3.22542C2.02582 7.15988 1.0502 8.13629 1.0502 9.33575V18.6135C1.0502 19.8131 2.02589 20.7888 3.22542 20.7888Z" fill="#53B1FD" stroke="#53B1FD" stroke-width="0.3"/>
<path d="M3.2001 20.8394C3.2001 21.4805 3.7208 22.0013 4.3614 22.0013C5.00199 22.0013 5.5227 21.4805 5.5227 20.8394V20.3098C5.5227 20.0463 5.30892 19.8325 5.04542 19.8325H3.67738C3.41388 19.8325 3.2001 20.0463 3.2001 20.3098V20.8394ZM4.15466 20.84V20.7878H4.56814V20.84C4.56814 20.9546 4.47522 21.0474 4.3614 21.0474C4.24805 21.0474 4.15466 20.9544 4.15466 20.84Z" fill="#53B1FD" stroke="#53B1FD" stroke-width="0.3"/>
<path d="M17.4278 22.0011C16.7872 22.0011 16.2665 21.4802 16.2665 20.8391V20.3096C16.2665 20.0461 16.4803 19.8323 16.7438 19.8323H18.1118C18.3753 19.8323 18.5891 20.0461 18.5891 20.3096L18.5891 20.8389L18.5891 20.8391M17.4278 22.0011L18.4391 20.3096C18.4391 20.1289 18.2925 19.9823 18.1118 19.9823H16.7438C16.5631 19.9823 16.4165 20.1289 16.4165 20.3096V20.8391C16.4165 21.3975 16.8701 21.8511 17.4278 21.8511C17.9861 21.8511 18.4398 21.3975 18.4391 20.8391H18.5891M17.4278 22.0011C18.0689 22.0011 18.5898 21.4804 18.5891 20.8391M17.4278 22.0011L18.5891 20.8391M17.2217 20.8398V20.7875H17.6352V20.8398C17.6352 20.9543 17.5423 21.0472 17.4285 21.0472C17.3151 21.0472 17.2217 20.9541 17.2217 20.8398Z" fill="#53B1FD" stroke="#53B1FD" stroke-width="0.3"/>
<path d="M20.0231 11.8326L20.0224 11.8322C19.8759 11.7466 19.7851 11.5902 19.7851 11.4193V9.99822C19.7851 9.82637 19.8769 9.66904 20.0251 9.58356L20.0256 9.58325L20.0256 9.58325L21.3131 8.84755C21.3131 8.84754 21.3131 8.84753 21.3131 8.84752C21.655 8.65198 22.0641 8.65443 22.4039 8.8512L20.0231 11.8326ZM20.0231 11.8326C20.0975 11.8756 20.1798 11.8966 20.2623 11.8966C20.3438 11.8966 20.4255 11.8755 20.499 11.834L20.499 11.834L20.4997 11.8336L22.3993 10.7483L22.4749 10.7051M20.0231 11.8326L22.4749 10.7051M22.4749 10.7051V10.7003M22.4749 10.7051V10.7003M22.4749 10.7003C22.7703 10.4976 22.9501 10.1595 22.9501 9.79792C22.9501 9.40403 22.7455 9.04888 22.404 8.85122L22.4749 10.7003ZM21.9254 9.67686L21.9254 9.67687L21.9269 9.6777C21.9498 9.69074 21.9955 9.72586 21.9955 9.79792C21.9955 9.84808 21.9688 9.89488 21.9247 9.92061L20.7396 10.5973V10.2751L21.7873 9.67614L21.7875 9.67603C21.848 9.64133 21.9008 9.66257 21.9254 9.67686Z" fill="#53B1FD" stroke="#53B1FD" stroke-width="0.3"/>
<path d="M14.4681 4.48638L14.4686 4.48623C15.0134 4.32303 15.3768 3.83686 15.3768 3.27629C15.3768 2.57483 14.8063 2.00392 14.1058 2.00392H7.68516C6.98393 2.00392 6.41345 2.57487 6.41345 3.27629C6.41345 3.83673 6.77742 4.32292 7.32159 4.4862L14.4681 4.48638ZM14.4681 4.48638C14.2672 4.54733 14.1286 4.73229 14.1286 4.94346V7.15971M14.4681 4.48638L14.1286 7.15971M14.1286 7.15971H7.66232L7.6617 4.94346C7.6617 4.94345 7.6617 4.94343 7.6617 4.94342C7.66169 4.7328 7.52358 4.54659 7.32177 4.48625L14.1286 7.15971ZM7.18508 8.11427H14.6059L14.9325 7.63699H15.0825V7.63674C15.0825 7.63664 15.0825 7.63654 15.0825 7.63645L15.0825 5.26888C15.8421 4.90124 16.3314 4.13891 16.3314 3.27694C16.3314 2.04871 15.3335 1.05001 14.1058 1.05001H7.68516C6.45746 1.05001 5.45889 2.04864 5.45889 3.27694C5.45889 4.13895 5.94885 4.90122 6.70779 5.26885V7.63699C6.70779 7.90049 6.92157 8.11427 7.18508 8.11427Z" fill="#53B1FD" stroke="#53B1FD" stroke-width="0.3"/>
<path d="M4.9956 12.5086C4.29587 12.5086 3.72705 11.9398 3.72705 11.24C3.72705 10.5403 4.29587 9.9715 4.9956 9.9715C5.69532 9.9715 6.26414 10.5403 6.26414 11.24C6.26414 11.9398 5.69532 12.5086 4.9956 12.5086ZM4.9956 10.6267C4.65719 10.6267 4.38161 10.9023 4.38161 11.2407C4.38161 11.5791 4.65719 11.8547 4.9956 11.8547C5.33401 11.8547 5.60958 11.5791 5.60958 11.2407C5.60958 10.9023 5.33401 10.6267 4.9956 10.6267Z" fill="#53B1FD"/>
<path d="M4.9956 15.7844C4.29587 15.7844 3.72705 15.2156 3.72705 14.5159C3.72705 13.8161 4.29587 13.2473 4.9956 13.2473C5.69532 13.2473 6.26414 13.8161 6.26414 14.5159C6.26414 15.2156 5.69532 15.7844 4.9956 15.7844ZM4.9956 13.9019C4.65719 13.9019 4.38161 14.1774 4.38161 14.5159C4.38161 14.8543 4.65719 15.1298 4.9956 15.1298C5.33401 15.1298 5.60958 14.8543 5.60958 14.5159C5.60958 14.1774 5.33401 13.9019 4.9956 13.9019Z" fill="#53B1FD"/>
</svg>
