<svg width="24" height="22" viewBox="0 0 24 22" fill="none" xmlns="http://www.w3.org/2000/svg">
<g id="Layer 40">
<path id="Vector" d="M21 17H3C2.40326 17 1.83097 16.7629 1.40901 16.341C0.987053 15.919 0.75 15.3467 0.75 14.75V2.75C0.75 2.15326 0.987053 1.58097 1.40901 1.15901C1.83097 0.737053 2.40326 0.5 3 0.5H21C21.5967 0.5 22.169 0.737053 22.591 1.15901C23.0129 1.58097 23.25 2.15326 23.25 2.75V14.75C23.25 15.3467 23.0129 15.919 22.591 16.341C22.169 16.7629 21.5967 17 21 17ZM3 2C2.80109 2 2.61032 2.07902 2.46967 2.21967C2.32902 2.36032 2.25 2.55109 2.25 2.75V14.75C2.25 14.9489 2.32902 15.1397 2.46967 15.2803C2.61032 15.421 2.80109 15.5 3 15.5H21C21.1989 15.5 21.3897 15.421 21.5303 15.2803C21.671 15.1397 21.75 14.9489 21.75 14.75V2.75C21.75 2.55109 21.671 2.36032 21.5303 2.21967C21.3897 2.07902 21.1989 2 21 2H3Z" fill="#53B1FD"/>
<path id="Vector_2" d="M15.7499 21.5H8.24991C8.14045 21.5014 8.03202 21.4788 7.93221 21.4339C7.8324 21.3889 7.74365 21.3227 7.67218 21.2398C7.6007 21.1569 7.54825 21.0593 7.51849 20.954C7.48872 20.8486 7.48238 20.7381 7.49991 20.63L8.24991 16.13C8.27866 15.9525 8.3702 15.7913 8.50786 15.6757C8.64552 15.56 8.82014 15.4977 8.99991 15.5H14.9999C15.1797 15.4977 15.3543 15.56 15.492 15.6757C15.6296 15.7913 15.7212 15.9525 15.7499 16.13L16.4999 20.63C16.5174 20.7381 16.5111 20.8486 16.4813 20.954C16.4516 21.0593 16.3991 21.1569 16.3276 21.2398C16.2562 21.3227 16.1674 21.3889 16.0676 21.4339C15.9678 21.4788 15.8594 21.5014 15.7499 21.5ZM9.13491 20H14.8649L14.3624 17H9.63741L9.13491 20Z" fill="#53B1FD"/>
<path id="Vector_3" d="M18 21.5H6C5.80109 21.5 5.61032 21.421 5.46967 21.2803C5.32902 21.1397 5.25 20.9489 5.25 20.75C5.25 20.5511 5.32902 20.3603 5.46967 20.2197C5.61032 20.079 5.80109 20 6 20H18C18.1989 20 18.3897 20.079 18.5303 20.2197C18.671 20.3603 18.75 20.5511 18.75 20.75C18.75 20.9489 18.671 21.1397 18.5303 21.2803C18.3897 21.421 18.1989 21.5 18 21.5Z" fill="#53B1FD"/>
<path id="Vector_4" d="M22.5 13.25H1.5C1.30109 13.25 1.11032 13.171 0.96967 13.0303C0.829018 12.8897 0.75 12.6989 0.75 12.5C0.75 12.3011 0.829018 12.1103 0.96967 11.9697C1.11032 11.829 1.30109 11.75 1.5 11.75H22.5C22.6989 11.75 22.8897 11.829 23.0303 11.9697C23.171 12.1103 23.25 12.3011 23.25 12.5C23.25 12.6989 23.171 12.8897 23.0303 13.0303C22.8897 13.171 22.6989 13.25 22.5 13.25Z" fill="#53B1FD"/>
</g>
</svg>
