<svg width="24" height="24" viewBox="0 0 24 24" fill="none" xmlns="http://www.w3.org/2000/svg">
<path d="M21.9047 21.9048C21.9047 23.0621 20.9665 24 19.8095 24H4.19045C3.0335 24 2.09521 23.0621 2.09521 21.9048V2.09524C2.09521 0.937905 3.0335 0 4.19045 0H19.8095C20.9665 0 21.9047 0.937905 21.9047 2.09524V21.9048ZM20.7619 2.09524C20.7619 1.56914 20.3356 1.14286 19.8095 1.14286H4.19045C3.66436 1.14286 3.23807 1.56914 3.23807 2.09524V21.9048C3.23807 22.4309 3.66436 22.8571 4.19045 22.8571H19.8095C20.3356 22.8571 20.7619 22.4309 20.7619 21.9048V2.09524Z" fill="#53B1FD"/>
<path d="M21.1706 7.2381H2.50398C2.18855 7.2381 2.09521 6.98248 2.09521 6.66667V2.27848C2.09521 1.10743 3.02969 0 4.19007 0H19.6644C20.8887 0 21.9047 1.20076 21.9047 2.27848V6.66667C21.9047 6.98248 21.4861 7.2381 21.1706 7.2381ZM3.23807 6.09524H20.7619V2.27848C20.7619 1.76419 20.1821 1.14286 19.6644 1.14286H4.19007C3.66931 1.14286 3.23807 1.74781 3.23807 2.27848V6.09524Z" fill="#53B1FD"/>
<path d="M8.76186 7.04763C8.44643 7.04763 8.19043 6.79201 8.19043 6.47621V0.761919C8.19043 0.44611 8.44643 0.190491 8.76186 0.190491C9.07729 0.190491 9.33329 0.44611 9.33329 0.761919V6.47621C9.33329 6.79201 9.07729 7.04763 8.76186 7.04763Z" fill="#53B1FD"/>
<path d="M19.316 3.71012C19.316 4.2545 18.8752 4.69564 18.3308 4.69564C17.7865 4.69564 17.3457 4.2545 17.3457 3.71012C17.3457 3.16612 17.7865 2.72498 18.3308 2.72498C18.8752 2.72498 19.316 3.16612 19.316 3.71012Z" fill="#53B1FD"/>
<path d="M16.5577 3.71012C16.5577 4.2545 16.1169 4.69564 15.5725 4.69564C15.0282 4.69564 14.5874 4.2545 14.5874 3.71012C14.5874 3.16612 15.0282 2.72498 15.5725 2.72498C16.1169 2.72498 16.5577 3.16612 16.5577 3.71012Z" fill="#53B1FD"/>
<path d="M13.7994 3.71012C13.7994 4.2545 13.3579 4.69564 12.8142 4.69564C12.2699 4.69564 11.8291 4.2545 11.8291 3.71012C11.8291 3.16612 12.2699 2.72498 12.8142 2.72498C13.3579 2.72498 13.7994 3.16612 13.7994 3.71012Z" fill="#53B1FD"/>
<path d="M11.7056 21.0796C8.68766 21.0796 6.23242 18.6248 6.23242 15.6069C6.23242 12.589 8.68766 10.1341 11.7056 10.1341C14.7231 10.1341 17.1787 12.589 17.1787 15.6069C17.1787 18.6248 14.7231 21.0796 11.7056 21.0796ZM11.7056 11.277C9.31775 11.277 7.37528 13.219 7.37528 15.6069C7.37528 17.9943 9.31775 19.9368 11.7056 19.9368C14.093 19.9368 16.0359 17.9943 16.0359 15.6069C16.0359 13.219 14.093 11.277 11.7056 11.277Z" fill="#53B1FD"/>
<path d="M9.61968 17.4141C8.2833 17.4141 7.1233 16.6347 6.53587 16.0107C6.31949 15.781 6.33015 15.4194 6.56025 15.2031C6.78844 14.9867 7.14996 14.997 7.36672 15.2259C7.44596 15.3086 9.32482 17.2343 11.2482 15.6225C13.425 13.8012 15.7126 14.8328 16.6174 15.6328C16.854 15.8415 16.8764 16.2027 16.6673 16.4392C16.4582 16.6754 16.097 16.6979 15.8608 16.4892C15.7854 16.4232 13.9401 14.8598 11.982 16.4991C11.1858 17.1653 10.3747 17.4141 9.61968 17.4141Z" fill="#53B1FD"/>
<path d="M14.7843 16.7151C14.7843 16.933 14.6079 17.1094 14.39 17.1094C14.1725 17.1094 13.9961 16.933 13.9961 16.7151C13.9961 16.4975 14.1725 16.3212 14.39 16.3212C14.6079 16.3212 14.7843 16.4975 14.7843 16.7151Z" fill="#53B1FD"/>
<path d="M14.3902 18.2914C14.3902 18.509 14.2139 18.6857 13.9963 18.6857C13.7788 18.6857 13.6021 18.509 13.6021 18.2914C13.6021 18.0739 13.7788 17.8975 13.9963 17.8975C14.2139 17.8975 14.3902 18.0739 14.3902 18.2914Z" fill="#53B1FD"/>
<path d="M12.814 17.1093C12.814 17.3268 12.6376 17.5032 12.4197 17.5032C12.2018 17.5032 12.0254 17.3268 12.0254 17.1093C12.0254 16.8914 12.2018 16.715 12.4197 16.715C12.6376 16.715 12.814 16.8914 12.814 17.1093Z" fill="#53B1FD"/>
<path d="M12.0256 18.6857C12.0256 18.9033 11.8492 19.0796 11.6317 19.0796C11.4142 19.0796 11.2378 18.9033 11.2378 18.6857C11.2378 18.4678 11.4142 18.2914 11.6317 18.2914C11.8492 18.2914 12.0256 18.4678 12.0256 18.6857Z" fill="#53B1FD"/>
<path d="M9.66086 17.8975C9.66086 18.115 9.48448 18.2914 9.26695 18.2914C9.04943 18.2914 8.87305 18.115 8.87305 17.8975C8.87305 17.68 9.04943 17.5032 9.26695 17.5032C9.48448 17.5032 9.66086 17.68 9.66086 17.8975Z" fill="#53B1FD"/>
</svg>
