<svg width="24" height="24" viewBox="0 0 24 24" fill="none" xmlns="http://www.w3.org/2000/svg">
<path d="M12 0C7.44356 0 3.75 3.69356 3.75 8.25V15.75C3.75 20.3064 7.44356 24 12 24C16.5564 24 20.25 20.3064 20.25 15.75V8.25C20.25 3.69356 16.5564 0 12 0ZM18.75 15.75C18.75 19.4722 15.7222 22.5 12 22.5C8.27775 22.5 5.25 19.4722 5.25 15.75V8.25C5.25 4.52775 8.27775 1.5 12 1.5C15.7222 1.5 18.75 4.52775 18.75 8.25V15.75ZM12 3.75C10.7571 3.75 9.75 4.75706 9.75 6V9C9.75 10.2429 10.7571 11.25 12 11.25C13.2429 11.25 14.25 10.2429 14.25 9V6C14.25 4.75706 13.2429 3.75 12 3.75ZM12.75 9C12.75 9.41381 12.4138 9.75 12 9.75C11.5862 9.75 11.25 9.41381 11.25 9V6C11.25 5.58619 11.5862 5.25 12 5.25C12.4138 5.25 12.75 5.58619 12.75 6V9Z" fill="#53B1FD"/>
</svg>
