<svg width="24" height="24" viewBox="0 0 24 24" fill="none" xmlns="http://www.w3.org/2000/svg">
<path d="M16.8281 8.625H6.89062C6.70414 8.625 6.5253 8.55092 6.39344 8.41906C6.26158 8.2872 6.1875 8.10836 6.1875 7.92188V2.95312C6.1875 2.76664 6.26158 2.5878 6.39344 2.45594C6.5253 2.32408 6.70414 2.25 6.89062 2.25H16.8281C17.0146 2.25 17.1934 2.32408 17.3253 2.45594C17.4572 2.5878 17.5312 2.76664 17.5312 2.95312V7.92188C17.5312 8.10836 17.4572 8.2872 17.3253 8.41906C17.1934 8.55092 17.0146 8.625 16.8281 8.625ZM7.59375 7.21875H16.125V3.65625H7.59375V7.21875Z" fill="#53B1FD"/>
<path d="M16.8281 21.0938H6.89062C6.70414 21.0938 6.5253 21.0197 6.39344 20.8879C6.26158 20.756 6.1875 20.5772 6.1875 20.3907V12.7543C6.1875 12.5678 6.26158 12.3889 6.39344 12.2571C6.5253 12.1252 6.70414 12.0511 6.89062 12.0511H16.8281C17.0146 12.0511 17.1934 12.1252 17.3253 12.2571C17.4572 12.3889 17.5312 12.5678 17.5312 12.7543V20.3907C17.5312 20.5772 17.4572 20.756 17.3253 20.8879C17.1934 21.0197 17.0146 21.0938 16.8281 21.0938ZM7.59375 19.6876H16.125V13.4574H7.59375V19.6876Z" fill="#53B1FD"/>
<path d="M19.0901 17.7656H16.8284C16.6419 17.7656 16.463 17.6915 16.3312 17.5597C16.1993 17.4278 16.1252 17.249 16.1252 17.0625C16.1252 16.876 16.1993 16.6972 16.3312 16.5653C16.463 16.4335 16.6419 16.3594 16.8284 16.3594H19.0901C19.3247 16.3591 19.5497 16.2658 19.7156 16.0999C19.8815 15.934 19.9748 15.709 19.9751 15.4744V9.51047C19.975 9.27575 19.8817 9.05067 19.7158 8.88465C19.5498 8.71863 19.3248 8.62525 19.0901 8.625H4.62914C4.39442 8.62525 4.16939 8.71863 4.00346 8.88465C3.83753 9.05067 3.74426 9.27575 3.74414 9.51047V15.4744C3.74439 15.709 3.83771 15.934 4.00363 16.0999C4.16954 16.2658 4.3945 16.3591 4.62914 16.3594H6.89086C7.07734 16.3594 7.25618 16.4335 7.38804 16.5653C7.51991 16.6972 7.59399 16.876 7.59399 17.0625C7.59399 17.249 7.51991 17.4278 7.38804 17.5597C7.25618 17.6915 7.07734 17.7656 6.89086 17.7656H4.62914C4.02169 17.7649 3.43934 17.5232 3.0098 17.0937C2.58027 16.6642 2.33863 16.0818 2.33789 15.4744V9.51047C2.33851 8.90294 2.58009 8.32046 3.00964 7.89083C3.43918 7.4612 4.02161 7.21949 4.62914 7.21875H19.0901C19.6976 7.21949 20.28 7.4612 20.7096 7.89083C21.1391 8.32046 21.3807 8.90294 21.3813 9.51047V15.4744C21.3806 16.0818 21.1389 16.6642 20.7094 17.0937C20.2799 17.5232 19.6975 17.7649 19.0901 17.7656Z" fill="#53B1FD"/>
<path d="M6.1407 11.0625C6.11753 11.0626 6.09438 11.0615 6.07132 11.0592C6.04882 11.0569 6.02445 11.0531 6.00335 11.0489C5.98226 11.0447 5.95648 11.0386 5.93632 11.032C5.91616 11.0255 5.89273 11.0175 5.87163 11.0086C5.85054 10.9997 5.82991 10.9899 5.80976 10.9791C5.78924 10.9685 5.76936 10.9568 5.75023 10.9439C5.73148 10.9313 5.71273 10.9177 5.69491 10.9031C5.6771 10.8886 5.65976 10.8727 5.64335 10.8563C5.62695 10.8399 5.61148 10.8225 5.59648 10.8047C5.58195 10.787 5.56834 10.7685 5.5557 10.7494C5.54288 10.73 5.53116 10.7103 5.52054 10.6903C5.50976 10.6702 5.49991 10.6491 5.49101 10.628C5.4821 10.6069 5.4746 10.5849 5.46757 10.5633C5.46054 10.5417 5.45538 10.5164 5.4507 10.4963C5.44601 10.4761 5.44273 10.4494 5.44038 10.4283C5.43589 10.3815 5.43589 10.3344 5.44038 10.2877C5.44273 10.2652 5.44648 10.2408 5.4507 10.2197C5.45491 10.1986 5.46101 10.1728 5.46757 10.1527C5.47413 10.1325 5.4821 10.1091 5.49101 10.088C5.49991 10.0669 5.50976 10.0458 5.52054 10.0256C5.53132 10.0055 5.54304 9.98579 5.5557 9.96657C5.56834 9.94745 5.58195 9.92899 5.59648 9.91126C5.61101 9.89345 5.62695 9.8761 5.64335 9.8597C5.65976 9.84329 5.6771 9.82782 5.69491 9.81282C5.71273 9.79782 5.73148 9.7847 5.75023 9.77204C5.76936 9.75916 5.78924 9.74742 5.80976 9.73689C5.83007 9.72626 5.8507 9.71642 5.87163 9.70735C5.89273 9.69845 5.91476 9.69095 5.93632 9.68392C5.95788 9.67688 5.9832 9.67173 6.00335 9.66704C6.02351 9.66235 6.05023 9.65907 6.07132 9.65673C6.11732 9.65251 6.1636 9.65251 6.2096 9.65673C6.23257 9.65907 6.25648 9.66282 6.27804 9.66704C6.2996 9.67126 6.32491 9.67735 6.3446 9.68392C6.36429 9.69048 6.38866 9.69845 6.40976 9.70735C6.43085 9.71626 6.45148 9.7261 6.47163 9.73689C6.4921 9.74752 6.51197 9.75926 6.53116 9.77204C6.54991 9.7847 6.56866 9.79829 6.58648 9.81282C6.60429 9.82735 6.62163 9.84329 6.63804 9.8597C6.65445 9.8761 6.66945 9.89345 6.68491 9.91126C6.70038 9.92907 6.71304 9.94782 6.7257 9.96657C6.73835 9.98532 6.75007 10.0055 6.76085 10.0256C6.77163 10.0458 6.78148 10.0669 6.79038 10.088C6.79929 10.1091 6.80679 10.1311 6.81382 10.1527C6.82085 10.1742 6.82601 10.1995 6.8307 10.2197C6.83538 10.2399 6.83866 10.2666 6.84101 10.2877C6.8455 10.3344 6.8455 10.3815 6.84101 10.4283C6.83866 10.4508 6.83491 10.4752 6.8307 10.4963C6.82648 10.5174 6.82038 10.5431 6.81382 10.5633C6.80726 10.5834 6.79929 10.6069 6.79038 10.628C6.78148 10.6491 6.77163 10.6702 6.76085 10.6903C6.75007 10.7105 6.73835 10.7302 6.7257 10.7494C6.71304 10.7686 6.69898 10.7869 6.68491 10.8047C6.67085 10.8225 6.65445 10.8399 6.63804 10.8563C6.62163 10.8727 6.60429 10.8881 6.58648 10.9031C6.56866 10.9181 6.54991 10.9313 6.53116 10.9439C6.51197 10.9567 6.4921 10.9684 6.47163 10.9791C6.45132 10.9897 6.4307 10.9995 6.40976 11.0086C6.38866 11.0175 6.36663 11.025 6.3446 11.032C6.32257 11.0391 6.30054 11.0442 6.27804 11.0489C6.25554 11.0536 6.23116 11.0569 6.2096 11.0592C6.1867 11.0615 6.1637 11.0626 6.1407 11.0625Z" fill="#53B1FD"/>
<path d="M8.2032 11.0625C8.18023 11.0625 8.15632 11.0625 8.13382 11.0592C8.11132 11.0559 8.08695 11.0531 8.06585 11.0489C8.04476 11.0447 8.01898 11.0386 7.99882 11.032C7.97866 11.0254 7.95523 11.0175 7.93413 11.0086C7.91304 10.9997 7.89195 10.9898 7.87179 10.979C7.85163 10.9683 7.83195 10.9565 7.81273 10.9439C7.79361 10.9312 7.77514 10.9176 7.75741 10.9031C7.7396 10.8886 7.72226 10.8726 7.70585 10.8562C7.68945 10.8398 7.67398 10.8225 7.65898 10.8047C7.64398 10.7868 7.63085 10.7681 7.6182 10.7493C7.60533 10.7301 7.59344 10.7102 7.58257 10.6898C7.57226 10.6697 7.56241 10.649 7.55351 10.6279C7.5446 10.6068 7.5371 10.5848 7.53007 10.5633C7.52304 10.5417 7.51788 10.5164 7.5132 10.4962C7.50851 10.4761 7.50523 10.4493 7.50288 10.4283C7.49839 10.3815 7.49839 10.3344 7.50288 10.2876C7.50523 10.2651 7.50898 10.2408 7.5132 10.2197C7.51741 10.1986 7.52351 10.1728 7.53007 10.1526C7.53663 10.1325 7.5446 10.109 7.55351 10.0879C7.56241 10.0668 7.57226 10.0462 7.58257 10.0261C7.59344 10.0056 7.60533 9.98577 7.6182 9.96654C7.63085 9.94779 7.64445 9.92904 7.65898 9.91122C7.67351 9.89341 7.68945 9.87607 7.70585 9.85966C7.72226 9.84326 7.7396 9.82779 7.75741 9.81279C7.77514 9.79826 7.79361 9.78465 7.81273 9.77201C7.8321 9.75919 7.85179 9.74747 7.87179 9.73685C7.89195 9.72607 7.91304 9.71622 7.93413 9.70732C7.95523 9.69841 7.97726 9.69091 7.99882 9.68388C8.02038 9.67685 8.0457 9.67169 8.06585 9.66701C8.08601 9.66232 8.11273 9.65904 8.13382 9.65669C8.1806 9.65236 8.22767 9.65236 8.27445 9.65669C8.29695 9.65904 8.32132 9.66279 8.34241 9.66701C8.36351 9.67122 8.38929 9.67732 8.40945 9.68388C8.4296 9.69044 8.45304 9.69841 8.47413 9.70732C8.49523 9.71622 8.51585 9.72607 8.53601 9.73685C8.55616 9.74763 8.57632 9.75935 8.59554 9.77201C8.61476 9.78466 8.63304 9.79826 8.65085 9.81279C8.66866 9.82732 8.68601 9.84326 8.70241 9.85966C8.71882 9.87607 8.73382 9.89341 8.74929 9.91122C8.76476 9.92904 8.77741 9.94779 8.79007 9.96654C8.80279 9.98578 8.81452 10.0056 8.82523 10.0261C8.83585 10.0464 8.8457 10.067 8.85476 10.0879C8.86366 10.109 8.87116 10.1311 8.8782 10.1526C8.88523 10.1742 8.89038 10.1995 8.89507 10.2197C8.89976 10.2398 8.90304 10.2665 8.90538 10.2876C8.90988 10.3344 8.90988 10.3815 8.90538 10.4283C8.90304 10.4508 8.89929 10.4751 8.89507 10.4962C8.89085 10.5173 8.88476 10.5431 8.8782 10.5633C8.87163 10.5834 8.86366 10.6068 8.85476 10.6279C8.84585 10.649 8.83601 10.6697 8.82523 10.6898C8.81452 10.7102 8.80279 10.7301 8.79007 10.7493C8.77741 10.7681 8.76335 10.7868 8.74929 10.8047C8.73523 10.8225 8.71882 10.8398 8.70241 10.8562C8.68601 10.8726 8.66866 10.8881 8.65085 10.9031C8.63304 10.9181 8.61429 10.9312 8.59554 10.9439C8.57679 10.9565 8.55616 10.9683 8.53601 10.979C8.51585 10.9898 8.49523 10.9997 8.47413 11.0086C8.45304 11.0175 8.43101 11.025 8.40945 11.032C8.38788 11.039 8.36257 11.0442 8.34241 11.0489C8.32226 11.0536 8.29554 11.0568 8.27445 11.0592C8.25335 11.0615 8.22616 11.0625 8.2032 11.0625Z" fill="#53B1FD"/>
<path d="M14.625 16.125H9.09375C8.90727 16.125 8.72843 16.0509 8.59657 15.9191C8.4647 15.7872 8.39062 15.6084 8.39062 15.4219C8.39062 15.2354 8.4647 15.0566 8.59657 14.9247C8.72843 14.7928 8.90727 14.7188 9.09375 14.7188H14.625C14.8115 14.7188 14.9903 14.7928 15.1222 14.9247C15.254 15.0566 15.3281 15.2354 15.3281 15.4219C15.3281 15.6084 15.254 15.7872 15.1222 15.9191C14.9903 16.0509 14.8115 16.125 14.625 16.125Z" fill="#53B1FD"/>
<path d="M14.625 18.6094H9.09375C8.90727 18.6094 8.72843 18.5353 8.59657 18.4034C8.4647 18.2716 8.39062 18.0927 8.39062 17.9062C8.39062 17.7198 8.4647 17.5409 8.59657 17.4091C8.72843 17.2772 8.90727 17.2031 9.09375 17.2031H14.625C14.8115 17.2031 14.9903 17.2772 15.1222 17.4091C15.254 17.5409 15.3281 17.7198 15.3281 17.9062C15.3281 18.0927 15.254 18.2716 15.1222 18.4034C14.9903 18.5353 14.8115 18.6094 14.625 18.6094Z" fill="#53B1FD"/>
</svg>
