<svg width="66" height="19" viewBox="0 0 66 19" fill="none" xmlns="http://www.w3.org/2000/svg">
<path d="M0.721591 18V0.545454H3.88352V15.3494H11.571V18H0.721591ZM29.2322 9.27273C29.2322 11.1534 28.88 12.7642 28.1754 14.1051C27.4766 15.4403 26.522 16.4631 25.3118 17.1733C24.1072 17.8835 22.7408 18.2386 21.2124 18.2386C19.6839 18.2386 18.3146 17.8835 17.1044 17.1733C15.8999 16.4574 14.9453 15.4318 14.2408 14.0966C13.5419 12.7557 13.1925 11.1477 13.1925 9.27273C13.1925 7.39205 13.5419 5.78409 14.2408 4.44886C14.9453 3.10795 15.8999 2.08239 17.1044 1.37216C18.3146 0.661931 19.6839 0.306818 21.2124 0.306818C22.7408 0.306818 24.1072 0.661931 25.3118 1.37216C26.522 2.08239 27.4766 3.10795 28.1754 4.44886C28.88 5.78409 29.2322 7.39205 29.2322 9.27273ZM26.0533 9.27273C26.0533 7.94886 25.8459 6.83239 25.4311 5.92329C25.022 5.00852 24.4538 4.31818 23.7266 3.85227C22.9993 3.38068 22.1612 3.14489 21.2124 3.14489C20.2635 3.14489 19.4254 3.38068 18.6982 3.85227C17.9709 4.31818 17.3999 5.00852 16.9851 5.92329C16.576 6.83239 16.3714 7.94886 16.3714 9.27273C16.3714 10.5966 16.576 11.7159 16.9851 12.6307C17.3999 13.5398 17.9709 14.2301 18.6982 14.7017C19.4254 15.1676 20.2635 15.4006 21.2124 15.4006C22.1612 15.4006 22.9993 15.1676 23.7266 14.7017C24.4538 14.2301 25.022 13.5398 25.4311 12.6307C25.8459 11.7159 26.0533 10.5966 26.0533 9.27273ZM43.9148 6.11932C43.7727 5.65909 43.5767 5.24716 43.3267 4.88352C43.0824 4.5142 42.7869 4.19886 42.4403 3.9375C42.0994 3.67614 41.7074 3.48011 41.2642 3.34943C40.821 3.21307 40.3381 3.14489 39.8153 3.14489C38.8778 3.14489 38.0426 3.38068 37.3097 3.85227C36.5767 4.32386 36 5.01704 35.5795 5.93182C35.1648 6.84091 34.9574 7.94886 34.9574 9.25568C34.9574 10.5739 35.1648 11.6903 35.5795 12.6051C35.9943 13.5199 36.571 14.2159 37.3097 14.6932C38.0483 15.1648 38.9063 15.4006 39.8835 15.4006C40.7699 15.4006 41.5369 15.2301 42.1847 14.8892C42.8381 14.5483 43.3409 14.0653 43.6932 13.4403C44.0455 12.8097 44.2216 12.071 44.2216 11.2244L44.9375 11.3352H40.1989V8.86364H47.2812V10.9602C47.2812 12.4545 46.9631 13.7472 46.3267 14.8381C45.6903 15.929 44.8153 16.7699 43.7017 17.3608C42.5881 17.946 41.3097 18.2386 39.8665 18.2386C38.2585 18.2386 36.8466 17.8778 35.6307 17.1562C34.4205 16.429 33.4744 15.3977 32.7926 14.0625C32.1165 12.7216 31.7784 11.1307 31.7784 9.28977C31.7784 7.88068 31.9773 6.62216 32.375 5.5142C32.7784 4.40625 33.3409 3.46591 34.0625 2.69318C34.7841 1.91477 35.6307 1.32386 36.6023 0.920454C37.5739 0.511363 38.6307 0.306818 39.7727 0.306818C40.7386 0.306818 41.6392 0.448863 42.4744 0.732954C43.3097 1.01136 44.0511 1.40909 44.6989 1.92614C45.3523 2.44318 45.8892 3.05682 46.3097 3.76704C46.7301 4.47727 47.0057 5.26136 47.1364 6.11932H43.9148ZM65.9354 9.27273C65.9354 11.1534 65.5831 12.7642 64.8786 14.1051C64.1797 15.4403 63.2251 16.4631 62.0149 17.1733C60.8104 17.8835 59.4439 18.2386 57.9155 18.2386C56.3871 18.2386 55.0178 17.8835 53.8075 17.1733C52.603 16.4574 51.6484 15.4318 50.9439 14.0966C50.245 12.7557 49.8956 11.1477 49.8956 9.27273C49.8956 7.39205 50.245 5.78409 50.9439 4.44886C51.6484 3.10795 52.603 2.08239 53.8075 1.37216C55.0178 0.661931 56.3871 0.306818 57.9155 0.306818C59.4439 0.306818 60.8104 0.661931 62.0149 1.37216C63.2251 2.08239 64.1797 3.10795 64.8786 4.44886C65.5831 5.78409 65.9354 7.39205 65.9354 9.27273ZM62.7564 9.27273C62.7564 7.94886 62.549 6.83239 62.1342 5.92329C61.7251 5.00852 61.157 4.31818 60.4297 3.85227C59.7024 3.38068 58.8643 3.14489 57.9155 3.14489C56.9666 3.14489 56.1286 3.38068 55.4013 3.85227C54.674 4.31818 54.103 5.00852 53.6882 5.92329C53.2791 6.83239 53.0746 7.94886 53.0746 9.27273C53.0746 10.5966 53.2791 11.7159 53.6882 12.6307C54.103 13.5398 54.674 14.2301 55.4013 14.7017C56.1286 15.1676 56.9666 15.4006 57.9155 15.4006C58.8643 15.4006 59.7024 15.1676 60.4297 14.7017C61.157 14.2301 61.7251 13.5398 62.1342 12.6307C62.549 11.7159 62.7564 10.5966 62.7564 9.27273Z" fill="#1D2939"/>
</svg>
